<svg width="150" height="150" viewBox="0 0 150 150" fill="none" xmlns="http://www.w3.org/2000/svg">
<circle cx="75" cy="75" r="75" fill="#FFD900"/>
<path fill-rule="evenodd" clip-rule="evenodd" d="M100.318 83.9384C99.5059 85.9886 99.1078 88.3027 99.1078 90.8986C99.1078 93.4936 99.5059 95.8078 100.318 97.858C101.129 99.9074 102.223 101.627 103.614 103.032C104.281 103.705 104.993 104.298 105.75 104.813C106.576 105.374 107.454 105.843 108.386 106.223C110.176 106.95 112.048 107.313 114.021 107.313C115.993 107.313 117.865 106.95 119.687 106.223C120.338 105.963 120.957 105.662 121.548 105.318C122.614 104.696 123.585 103.936 124.459 103.032C125.834 101.627 126.928 99.8913 127.757 97.858C128.585 95.8078 129 93.4936 129 90.8986C129 88.3027 128.585 85.9886 127.757 83.9384C127.168 82.4822 126.436 81.1924 125.576 80.0631C125.224 79.6039 124.852 79.1712 124.459 78.7644C123.084 77.3591 121.493 76.2848 119.687 75.5414C117.865 74.7972 115.993 74.417 114.021 74.417C112.048 74.417 110.176 74.7972 108.386 75.5414C106.597 76.2848 105.006 77.3591 103.614 78.7644C102.223 80.1697 101.129 81.889 100.318 83.9384ZM108.619 98.4529C107.31 96.5681 106.663 94.0554 106.663 90.8986C106.663 87.7078 107.31 85.1782 108.619 83.2773C109.91 81.3764 111.718 80.4344 114.021 80.4344C116.323 80.4344 118.131 81.3934 119.456 83.2773C120.781 85.162 121.444 87.7571 121.444 90.8986C121.444 94.0393 120.781 96.5681 119.456 98.4529C118.131 100.354 116.323 101.296 114.021 101.296C111.718 101.296 109.928 100.354 108.619 98.4529Z" fill="#005A6C"/>
<path d="M80.0527 75.0942H86.1838L86.8456 80.7145H87.0123C89.3311 76.5818 92.645 74.4331 95.959 74.4331C97.1192 74.4331 98.4444 74.5986 99.6046 74.9287L98.2794 81.3764C97.1192 81.0455 96.1256 80.88 94.9654 80.88C92.3133 80.88 89.4978 82.6986 87.5091 87.3269V106.337H80.0527V75.0942Z" fill="#005A6C"/>
<path fill-rule="evenodd" clip-rule="evenodd" d="M62.1579 74.4331C54.7015 74.4331 47.5753 80.7145 47.5753 90.7985C47.5753 101.213 54.3698 107.164 63.1514 107.329C67.1287 107.329 70.9394 106.007 73.9217 104.023L71.4362 99.3949C69.1158 100.882 66.797 101.709 64.1449 101.709C59.174 101.709 55.53 98.5683 54.8666 92.948H74.7501C74.8472 92.4645 74.9443 91.8107 75.0074 91.0536C75.0527 90.5168 75.0819 89.9284 75.0819 89.3109C75.0819 80.5499 70.6077 74.4331 62.1579 74.4331ZM62.3229 80.0535C66.797 80.0535 68.7857 83.0295 68.7857 87.8233H54.8666C55.3633 82.864 58.5122 80.0535 62.3229 80.0535Z" fill="#005A6C"/>
<path d="M34.983 80.88L20.0703 102.536V106.503H44.5931V100.552H29.3487L44.0963 78.8968V75.0942H21.7273V80.88H34.983Z" fill="#005A6C"/>
<path fill-rule="evenodd" clip-rule="evenodd" d="M34.3867 42L35.979 58.3972C37.2487 58.3225 38.5453 58.2807 39.8697 58.2777L39.8747 42H37.1992H34.3867Z" fill="#66B24C"/>
<path fill-rule="evenodd" clip-rule="evenodd" d="M34.3799 42L32.7617 58.7079C33.8093 58.5924 34.8818 58.5008 35.9752 58.434L34.3809 42H34.3799Z" fill="#FFD900"/>
<path fill-rule="evenodd" clip-rule="evenodd" d="M20 42L20.008 61.8407C23.3858 60.3629 27.7843 59.2616 32.7615 58.7099L34.3797 42.002V42H20Z" fill="#004FB6"/>
<path fill-rule="evenodd" clip-rule="evenodd" d="M115.589 42V42.5119C116.104 42.6204 117.226 42.9331 116.771 43.9438L110.413 58.197H113.773L115.762 53.7537H122.807L124.55 58.197H128.972L122.656 42H115.589ZM119.523 45.3709L122.02 51.7421H116.666L119.523 45.3709Z" fill="#004FB6"/>
<path fill-rule="evenodd" clip-rule="evenodd" d="M107.8 42L102.854 53.8769L98.1462 42H92.1523V42.5109C92.8446 42.6443 93.6214 42.9421 93.976 43.8384L99.6661 58.1971H104.246L110.99 42H107.8Z" fill="#004FB6"/>
<path fill-rule="evenodd" clip-rule="evenodd" d="M83.7344 42V42.5109C84.0859 42.5746 85.3457 42.9421 85.3457 43.8384V58.1971H89.6111V42H83.7344Z" fill="#004FB6"/>
<path fill-rule="evenodd" clip-rule="evenodd" d="M78.2343 42L73.2887 53.8769L68.5811 42H62.5879V42.5109C63.281 42.6443 64.0568 42.9421 64.4124 43.8384L70.0999 58.1971H74.6799L81.4261 42H78.2343Z" fill="#004FB6"/>
<path fill-rule="evenodd" clip-rule="evenodd" d="M50.1981 42V42.5109C50.714 42.6194 51.8344 42.9321 51.3802 43.943L45.0205 58.1971H48.3806L50.3724 53.7534H57.4183L59.1601 58.1971H63.5788L57.2669 42H50.1981ZM54.1319 45.3701L56.6296 51.7418H51.2747L54.1319 45.3701Z" fill="#004FB6"/>
</svg>
