<svg xmlns="http://www.w3.org/2000/svg" height="800" width="1200" viewBox="-72.09375 -51.375 624.8125 308.25"><path fill="#7F3F98" d="M0 0h6.9v204H0z"/><path d="M75.5 9.3v4.1c2.1.1 3.6.5 4.4.7-.4-2.4-2.1-4.2-4.4-4.8M73 6.4c0 1.4-.3 2.3-.7 2.9 0 0 .7-.2 1.6-.2.6 0 1.5.2 1.6.2-.4-.6-.7-1.5-.7-2.9 3.1 0 3.8 1.4 3.8 2.6h.6V2h-.6c0 1.2-.8 2.6-3.8 2.6 0-3.1 1.4-3.8 2.6-3.8V.2h-7v.6c1.2 0 2.6.8 2.6 3.8-3.1 0-3.8-1.4-3.8-2.6h-.6v7h.6c0-1.2.7-2.6 3.8-2.6m-.7 2.9c-2.2.6-3.9 2.5-4.4 4.8.8-.2 2.3-.6 4.4-.7zm3.8 101.5c0 1.4 1.2 2.6 2.6 2.6 1.4 0 2.6-1.2 2.6-2.6 0-1.4-1.2-2.6-2.6-2.6-1.5.1-2.6 1.2-2.6 2.6m1.3 0c0-.7.6-1.3 1.3-1.3.7 0 1.3.6 1.3 1.3 0 .7-.6 1.3-1.3 1.3-.8 0-1.3-.5-1.3-1.3m-6-33.9c0-1.3-1-2.3-2.3-2.3h-13c-1.1 0-2 .9-2 2 0 .8.6 1.4 1.4 1.4.8 0 1.4-.6 1.4-1.5.3.3.6.5 1 .7-.2.8-.4 1.9-.5 3.2-.2-.3-.5-.4-.8-.4-.5 0-1 .4-1 1 0 .5.4 1 1 1 .3 0 .6-.2.8-.4 0 .7 0 1.4.1 2.2-.2-.1-.4-.2-.6-.2-.5 0-1 .4-1 1 0 .5.4 1 1 1 .3 0 .7-.2.8-.5 0 .1 0 .2.1.3.2.6.4 1.2.6 1.7-.1-.1-.3-.1-.5-.1-.5 0-1 .4-1 1 0 .5.4 1 1 1 .5 0 .9-.4 1-.8.3.6.7 1.2 1.2 1.8h-.2c-.5 0-1 .4-1 1s.4 1 1 1c.5 0 1-.4 1-1v-.1c1.5 1.5 3.4 2.8 5.7 3.7l-.4 3s.9.4 2.3.8 2.7.6 2.7.6zm-11.8 1.2s.1 0 .2.1l7.1 14.4c-8.8-4-7.9-11.2-7.3-14.5m7.5 13.4l-6.5-13.1c.4.1.8.1 1.2.1l5.6 11.3zm.4-2.9l-5-10.2c.4 0 .7-.1 1-.2l4.2 8.6zm.4-2.9l-3.8-7.6c.3-.1.6-.2.9-.4l3.1 6.2zm.4-2.9l-2.7-5.4c.3-.2.6-.4.8-.6l2.1 4.2zm.7-5l-.3 2.2-1.7-3.5c.2-.1.4-.1.6-.1.8-.1 1.5.6 1.4 1.4M62.8 19c0-.8.7-1.5 1.5-1.5s1.5.7 1.5 1.5c0 .9-.7 1.5-1.5 1.5-.8.1-1.5-.6-1.5-1.5M42.9 29.6c0-.8.7-1.5 1.5-1.5.9 0 1.5.7 1.5 1.5 0 .9-.7 1.5-1.5 1.5s-1.5-.7-1.5-1.5m-.8-3.9c0-.9.7-1.5 1.5-1.5s1.5.7 1.5 1.5-.7 1.5-1.5 1.5c-.8.1-1.5-.6-1.5-1.5m.3-3.9c0-.8.7-1.5 1.5-1.5.9 0 1.5.7 1.5 1.5s-.7 1.5-1.5 1.5-1.5-.7-1.5-1.5m2.1-3.4c0-.8.7-1.5 1.5-1.5.9 0 1.5.7 1.5 1.5s-.7 1.5-1.5 1.5c-.8.1-1.5-.6-1.5-1.5m3.2-2.3c0-.8.7-1.5 1.5-1.5s1.5.7 1.5 1.5c0 .9-.7 1.5-1.5 1.5-.8.1-1.5-.6-1.5-1.5m3.9-.7c0-.8.7-1.5 1.5-1.5.9 0 1.5.7 1.5 1.5s-.7 1.5-1.5 1.5c-.8.1-1.5-.6-1.5-1.5m3.8.8c0-.8.7-1.5 1.5-1.5.9 0 1.5.7 1.5 1.5s-.7 1.5-1.5 1.5c-.8.1-1.5-.6-1.5-1.5m3.7 1.5c0-.8.7-1.5 1.5-1.5.9 0 1.5.7 1.5 1.5 0 .9-.7 1.5-1.5 1.5s-1.5-.7-1.5-1.5M85 19c0-.8-.7-1.5-1.5-1.5S82 18.2 82 19c0 .9.7 1.5 1.5 1.5.8.1 1.5-.6 1.5-1.5m19.9 10.6c0-.8-.7-1.5-1.5-1.5-.9 0-1.5.7-1.5 1.5 0 .9.7 1.5 1.5 1.5s1.5-.7 1.5-1.5m.8-3.9c0-.9-.7-1.5-1.5-1.5s-1.5.7-1.5 1.5.7 1.5 1.5 1.5c.8.1 1.5-.6 1.5-1.5m-.4-3.9c0-.8-.7-1.5-1.5-1.5-.9 0-1.5.7-1.5 1.5s.7 1.5 1.5 1.5c.9 0 1.5-.7 1.5-1.5m-2-3.4c0-.8-.7-1.5-1.5-1.5s-1.5.7-1.5 1.5.7 1.5 1.5 1.5c.8.1 1.5-.6 1.5-1.5m-3.2-2.3c0-.8-.7-1.5-1.5-1.5-.9 0-1.5.7-1.5 1.5 0 .9.7 1.5 1.5 1.5.8.1 1.5-.6 1.5-1.5m-3.9-.7c0-.8-.7-1.5-1.5-1.5-.9 0-1.5.7-1.5 1.5s.7 1.5 1.5 1.5c.8.1 1.5-.6 1.5-1.5m-3.9.8c0-.8-.7-1.5-1.5-1.5-.9 0-1.5.7-1.5 1.5s.7 1.5 1.5 1.5c.9.1 1.5-.6 1.5-1.5m-3.7 1.5c0-.8-.7-1.5-1.5-1.5s-1.5.7-1.5 1.5c0 .9.7 1.5 1.5 1.5.9 0 1.5-.7 1.5-1.5m-1.5 23.4c0-.9-.8-1.7-1.7-1.7-.9 0-1.7.8-1.7 1.7 0 .9.8 1.7 1.7 1.7.9 0 1.7-.8 1.7-1.7M76 51.3v19.4h17.2V51.3zm16.7 18.9H76.5V51.9h16.1z"/><path d="M78.2 52.5h-1v17H92v-17h-9.4zM91 53v.5h.5v15H91v.5H78.2v-.5h-.5v-15h.5V53z"/><path d="M90.3 57.4l-.8.8s-.1 0-.1.1l-1.5 1.4c-.5.4-.6 1.1-.2 1.6l.9 1.2c.1.1.1.2.1.4 0 .1-.1.3-.2.3-.1.1-.2.1-.4.1-.1 0-.3-.1-.3-.2 0 0-.9-1.2-1.3-1.8v-1.7l2.1-2v-1.7l-.7-.7.9-.9h-3.7l-.9.9v1c.1-.1.3-.1.4-.1.4 0 .8.4.8.8s-.4.8-.8.8c-.1 0-.3 0-.4-.1v1.2h-1.3l-1.5-2.1c.2-.2.3-.5.3-.8 0-.6-.5-1-1-1-.2 0-.4.1-.6.2v1.7h.1l1.4 2 .7 1H84l-.9.9h-1.8c-.1-.4-.5-.6-.9-.6s-.8.3-.9.6c0 .1-.1.2-.1.4s.1.5.2.6h4.1l.7 1h-2.8l1.1 1.5.6.8h-1.4c-.1-.4-.5-.7-1-.7-.4 0-.8.3-1 .7v.3c0 .3.1.5.3.7h5.1l-.7-1-.6-.8h1.6l.6.8.7 1h2.4v1.1H89c-.1-.4-.5-.7-1-.7s-.8.3-1 .7v.3c0 .3.1.5.3.7h3v-3.2h-2l-1-1.3c.2.2.4.4.7.4.3 0 .6 0 .9-.2.3-.2.4-.5.5-.8 0-.3 0-.6-.2-.9l-.9-1.2c-.2-.2-.1-.6.1-.7l.4-.4c.4.3.9.3 1.3 0 .2-.2.3-.4.3-.7zM76.2 41.1l-2.3 2.3-2.3-2.3 2.3-2.3zm-15.5 0c0-.9.8-1.7 1.7-1.7.9 0 1.7.8 1.7 1.7 0 .9-.8 1.7-1.7 1.7-.9 0-1.7-.8-1.7-1.7M92 84.7v-.5c0-.7-.5-1.2-1.2-1.2h-4.3c0-.5-.5-1-1-1-.3 0-.5.1-.7.3l-1.3 1.3h7.3c.3 0 .5.2.5.5s-.2.5-.5.5h-8.5v-1.2l1.5-1.5h-5.9l1.5 1.5v2.2L77 83.7c.2-.2.3-.5.3-.8 0-.6-.5-1-1-1-.2 0-.5.1-.7.2v1.8l3.7 3-1.7.5c-.1-.4-.5-.7-1-.7-.6 0-1 .5-1 1 0 .2.1.5.2.6h2.1l9.2-2.9v1.4l-1.2.5c-.1-.5-.5-.8-1-.8-.6 0-1 .5-1 1 0 .2.1.5.2.6h2.3l1.4-.7.9-.4-.4-.9v-.2h3.4c0 .1-.1.3-.1.4-.1.2-.2.5-.3.7-.2-.2-.5-.3-.8-.3-.6 0-1 .5-1 1 0 .2.1.5.2.6h2.1c.3-.6.5-1.3.6-1.7.3-.9.5-1.7.5-2 .1.1-.9.1-.9.1m-11.1.1l-1-1h2zm11.2-7.5c.1-.2.1-.3.1-.5 0-.7-.5-1.2-1.2-1.2h-4.5c0-.5-.5-1-1-1-.3 0-.5.1-.7.3l-1.3 1.3h7.6c.3 0 .5.2.5.5s-.2.5-.5.5h-8.8V76l1.5-1.5h-5.9l1.5 1.5v2.2L77 76.3c.2-.2.3-.5.3-.7 0-.6-.5-1-1-1-.2 0-.5.1-.7.2v1.8l3.6 2.9-1.7.5c-.1-.4-.5-.7-1-.7-.6 0-1 .5-1 1 0 .2.1.5.2.7h2.1l9.2-2.9v1.5l-1.2.4c-.1-.4-.5-.7-1-.7-.6 0-1 .5-1 1 0 .2.1.5.2.7h2.3l2.3-.7 1.1-.4-.9-.8-.6-.6h4.1v1.1c-.2-.2-.5-.4-.8-.4-.6 0-1 .5-1 1 0 .2.1.5.2.7h2.6v-3.7zm-11.2.1l-1-1h2zm7.4 12.9h-1.8c0-.5-.5-1-1-1-.3 0-.5.1-.7.3l-1.3 1.3h4.9c.3 0 .5.2.5.5s-.2.5-.5.5h-5.9v-1l1.5-1.5h-5.9l1.5 1.5v2.5l-2.4-2.2c.2-.2.4-.5.4-.8 0-.6-.5-1-1-1-.2 0-.5.1-.7.2v1.7l3.8 3.5.2-.2-2.4 2.9c-.2-.2-.5-.2-.7-.2-.6.1-1 .6-.9 1.1 0 .2.1.4.2.6.4 0 .9-.1 1.7-.2l2.7-3.2c.4-.1.7-.3 1.1-.4l1.1 1-.6.3c-.3-.2-.7-.3-1-.2-.5.2-.8.8-.6 1.3.1.2.2.3.3.4 0 0 .4-.1.8-.3.4-.2.8-.3.8-.3.5-.2.9-.4 1.3-.6v-2.7c.7-.4 1.3-.8 1.8-1.3l1 .9c-.2.2-.4.3-.7.5-.3-.2-.7-.2-1 0-.2.1-.4.4-.5.6v.4c0 .1.1.3.1.4.1.2.3.3.5.4.5-.3.9-.6 1.4-.9.3-.2.7-.5 1-.8l.3-.3v-1.3h.7c.7 0 1.2-.5 1.2-1.2 0-.6-.5-1.2-1.2-1.2M80.2 94zm.7-1.8l-1-1h2zM70.7 67.6c.1-.2.1-.3.1-.5 0-.7-.5-1.2-1.2-1.2h-4.5c0-.5-.5-1-1-1-.3 0-.5.1-.7.3l-1.3 1.3h7.6c.3 0 .5.2.5.5s-.2.5-.5.5H61v-1.2l1.5-1.5h-5.9l1.5 1.5v2.2l-2.4-1.9c.2-.2.3-.5.3-.7 0-.6-.5-1-1-1-.3 0-.5.1-.7.2v1.8l3.6 2.9-1.7.5c-.1-.4-.5-.7-1-.7-.6 0-1 .5-1 1 0 .3.1.5.2.7h2.1l9.2-2.9v1.5l-1.2.4c-.1-.4-.5-.7-1-.7-.6 0-1 .5-1 1 0 .3.1.5.2.7h2.1l2.3-.7 1.1-.3-.9-.8-.6-.6h4.1V70c-.2-.2-.5-.4-.8-.4-.6 0-1 .5-1 1 0 .3.1.5.2.7h2.6v-3.7zm-11.3.1l-1-1h2zm11.3-7.2c.1-.2.1-.3.1-.5 0-.7-.5-1.2-1.2-1.2h-4.5c0-.5-.5-1-1-1-.3 0-.5.1-.7.3l-1.3 1.3h7.5c.3 0 .5.2.5.5s-.2.5-.5.5h-8.7v-1.2l1.5-1.5h-5.9l1.5 1.5v2.2l-2.4-1.9c.2-.2.3-.5.3-.7 0-.6-.5-1-1-1-.3 0-.5.1-.7.2v1.8l3.6 2.9-1.7.5c-.1-.4-.5-.7-1-.7-.6 0-1 .5-1 1 0 .2.1.5.2.7h2.1l9.2-2.9v1.5l-1.2.4c-.1-.4-.5-.7-1-.7-.6 0-1 .5-1 1 0 .2.1.5.2.7h2.2l2.3-.7 1.1-.4-.9-.8-.6-.6h4.1v1.1c-.2-.2-.5-.4-.8-.4-.6 0-1 .5-1 1 0 .2.1.5.2.7h2.6v-3.8h-1.1zm-11.3.1l-1-1h2zm11.3-7.3c.1-.2.1-.3.1-.5 0-.7-.5-1.2-1.2-1.2h-4.5c0-.5-.5-1-1-1-.3 0-.5.1-.7.3l-1.3 1.3h7.5c.3 0 .5.2.5.5s-.2.5-.5.5h-8.7V52l1.5-1.5h-5.9L58 52v2.2l-2.4-1.9c.2-.2.3-.5.3-.7 0-.6-.5-1-1-1-.3 0-.5.1-.7.2v1.8l3.6 2.9-1.7.5c-.1-.4-.5-.7-1-.7-.6 0-1 .5-1 1 0 .3.1.5.2.7h2.1l9.2-2.9v1.5l-1.2.4c-.1-.4-.5-.7-1-.7-.6 0-1 .5-1 1 0 .3.1.5.2.7h2.1l2.3-.7 1.1-.3-.9-.8-.6-.6h4.1v1.1c-.2-.2-.5-.4-.8-.4-.6 0-1 .5-1 1 0 .3.1.5.2.7h2.6v-3.8zm-11.3.2l-1-1h2zM102 71.6c.7-.2 1-.9.8-1.5-.1-.3-.3-.6-.6-.7-.3-.2-.6-.2-.9-.1-.3.1-.6.3-.7.6-.2.3-.2.6-.1.9.2.6.9.9 1.5.8m-3.5 2.7l.2 1.1 4-.6c.1 0 4 2 4 2l-.2-1.4-2.8-1.4c.2-.2 2.3-2.1 2.3-2.1l-.2-1.4-.1.1s-3.1 2.9-3.2 3c0 .1-4 .7-4 .7m3.1 3.9c0 .3.1.6.4.9.2.2.5.4.9.3.3 0 .6-.1.9-.4.2-.2.3-.5.3-.9 0-.3-.1-.6-.4-.9-.2-.2-.5-.4-.9-.4-.7.1-1.2.7-1.2 1.4m-2.8 2l-.1 1.1s3.1.4 3.3.5c0 .1-.1.9-.1.9v.5c0 .5.1 1 .4 1.4.3.4.8.7 1.5.8 1.4.2 2.4-.5 2.6-1.9l.3-2.2zm6.4 2c0 .1-.1 1.1-.1 1.1-.1 1-.9 1-1.2.9-.6-.1-1-.5-1-1V83s.1-.8.1-1c.2-.1 2.1.1 2.2.2m-7.1 2.5l-1.3 3.8 1.1.4s.9-2.7.9-2.8c.1.1 1.9.6 2.1.7-.1.2-.9 2.6-.9 2.6l1.1.4s.8-2.5.9-2.6c.1.1 1.9.6 2 .7-.1.2-.9 2.7-.9 2.7l1.1.4 1.3-3.8zm-1.5 4.5l-.5.8s4.4 2.8 4.8 3.1c-.5 0-7.1.6-7.1.6l-.5.8 6.6 4.2.6-.9s-4.4-2.8-4.8-3.1c.5 0 7.2-.7 7.2-.7l.5-.8zM94 98.6c-.8.1-1.5.3-2-.2-.2-.2-.4-.8.1-1.3s1.2-.6 2-.5h.3l-1.2-1.2c-.8.1-1.4.3-1.9.9-.4.4-.6.9-.6 1.4 0 .6.2 1.1.7 1.6 1 1 2.1.8 3.1.6.7-.2 1.3-.3 1.8.1.1.2.2.3.2.5 0 .3-.1.5-.4.8-.4.4-.9.6-1.6.5h-.2l1.1 1.1c.6-.1 1.1-.3 1.5-.7.5-.5.7-1 .7-1.5s-.2-1.1-.7-1.5c-.9-1-2-.8-2.9-.6m-4.8-.4l-3.3 2.2.6 1s2.3-1.6 2.5-1.7c.1.1 1.1 1.7 1.2 1.8-.1.1-2.3 1.6-2.3 1.6l.6 1s2.2-1.5 2.3-1.5c.1.1 1.1 1.6 1.2 1.8-.1.1-2.4 1.6-2.4 1.6l.6 1 3.3-2.2zm-28.9 5.2c-.1-.1-3-1.9-3.1-2 .1-.1 1.8-2.8 1.8-2.8l-1-.6v.1l-4.1 6.5 1 .6s1.7-2.7 1.8-2.8c.1.1 3 1.9 3.1 2-.1.1-1.8 2.8-1.8 2.8l1 .6 4.2-6.6-1-.6c-.1 0-1.8 2.6-1.9 2.8m-4-5.8c.1-1-.3-1.9-.9-2.6-1.7-1.9-4-1.5-5.5-.2-.9.8-1.4 1.8-1.4 2.8-.1 1 .3 1.9 1 2.7 1.4 1.6 3.8 1.7 5.5.2.7-.8 1.2-1.8 1.3-2.9m-1.2 0c0 .7-.4 1.5-1 2-1.2 1.1-2.8 1.1-3.8-.1-.5-.5-.7-1.2-.6-1.8 0-.7.4-1.4 1-2 .6-.5 1.4-.8 2.1-.8.7 0 1.3.3 1.7.8.4.6.6 1.2.6 1.9m-2.9-6.5s-4.8 2.2-5.2 2.4c.2-.4 3.3-6.5 3.3-6.5l-.4-.9h-.1l-7 3.3.5 1s4.8-2.2 5.2-2.4c-.2.4-3.3 6.5-3.3 6.5l.4.8 7-3.3zM42 85.9l.3 1.2 7.5-1.9-.2-1.2-.1.1zm4-4.4c-.3-.2-.6-.3-.9-.2-.3 0-.6.2-.8.5-.2.3-.3.6-.2.9 0 .3.2.6.5.8.3.2.6.3.9.2.7-.1 1.1-.7 1-1.4-.1-.4-.3-.6-.5-.8m-.5-3c.5-.7.9-1.3 1.6-1.3.2 0 .4.1.6.3.2.2.3.5.3.8 0 .6-.4 1.2-1.1 1.7l-.2.2h1.7c.5-.6.7-1.2.7-2 0-.5-.2-1-.5-1.4-.4-.4-1-.6-1.6-.6-1.4 0-2 .9-2.6 1.8-.4.6-.7 1.2-1.3 1.2-.2 0-.4-.1-.5-.2-.2-.2-.3-.5-.3-.8 0-.5.3-1.1.8-1.5l.2-.1h-1.5c-.4.5-.6 1-.6 1.6 0 .7.2 1.2.6 1.6.4.4.9.6 1.5.6 1-.2 1.6-1.1 2.2-1.9m-.5-3.3c1.1.3 2.2.1 3.1-.4.8-.5 1.4-1.3 1.6-2.3.2-1 .1-2-.4-2.8-.5-.9-1.5-1.6-2.6-1.8-2.2-.6-4.3.6-4.8 2.7-.1.3-.1.6-.1.9 0 .7.2 1.3.5 1.8.7 1 1.6 1.7 2.7 1.9m-1.8-4.3c.2-.7.6-1.2 1.1-1.6.6-.4 1.4-.5 2.2-.3.8.2 1.5.7 1.8 1.3.3.6.4 1.2.3 1.9-.4 1.4-1.8 2.2-3.4 1.8-1.5-.3-2.4-1.6-2-3.1"/><path d="M109.8 78.5c0-9.6-3.7-18.6-10.5-25.4-.8-.8-1.6-1.5-2.5-2.3v-1.4c1.4-.1 2.6-1.3 2.6-2.7 0-1.5-1.2-2.7-2.7-2.7h-.2l2.6-1.2-1-2.2 3.9-9.1-1.7-.7-4 9.3-2.1 1 1.4 3H52.2l1.4-3-2.2-1-4-9.3-1.7.7 3.9 9.1-1 2.2 2.6 1.2h-.1c-1.5 0-2.7 1.2-2.7 2.7 0 1.4 1.1 2.6 2.5 2.7v1.4c-.8.7-1.7 1.5-2.5 2.3-6.8 6.8-10.5 15.8-10.5 25.4 0 7.4 2.2 14.5 6.5 20.6 4.2 5.9 9.9 10.4 16.7 12.9 0 0 .4.1 1 .4.1 1 .7 1.9 1.6 2.2 1 .4 2.1 0 2.7-.7h.1v10.2c0 3.8 3.2 6.8 7.2 6.8s7.2-3.1 7.2-6.8v-6.8l17.6-8.4c.6-.2 1.1-.5 1.6-.9 1.4-1.3 1.6-3.3.7-5.9 1.6-1.8 3-3.7 4.1-5.8 3.2-5.4 4.9-11.5 4.9-17.8M91.1 45.7l5.2 1.1-5.2 1.1zm-16.7 54.6v-27H95v5.1c0 5-.9 8.4-2.2 10.9-1.1 1.8-2.4 3.5-4 5l-.3.3c-3.8 3.6-8.9 5.6-14.1 5.7m6.2.9c-.4.9-.7 1.9-.9 3-2-.7-3.9-1.4-5.8-2.1 2.3.1 4.6-.3 6.7-.9m-6.2-28.8V49.5H95v22.9zm7.2-26.7l5.2 1.1-5.2 1.1zm-9.6 0l5.2 1.1-5.2 1.1zm-9.7 0l5.2 1.1-5.2 1.1zm-9.4 0l5.2 1.1-5.2 1.1zm0 21.8v-18h20.6v22.9H52.9zm0 5.8h20.6v27c-4.2-.1-8.3-1.4-11.8-3.8-.1-.1-.3-.2-.4-.3l-.1-.1c-.1-.1-.2-.1-.3-.2-.1-.1-.2-.2-.3-.2l-.1-.1c-2.2-1.7-4.1-3.9-5.5-6.4-1.3-2.5-2.1-5.9-2.1-10.8zm9.8 37.4c-.3-.1-.6-.2-.8-.3-6.4-2.4-11.9-6.7-15.8-12.3-4-5.7-6.2-12.5-6.2-19.6 0-9.1 3.5-17.6 10-24.1.4-.4.8-.8 1.2-1.1v9.3c-1.4-1-3-2-3.1-2.1.1-.1 1.3-2 1.3-2l-1-.6v.1l-3.2 4.8 1 .6s1.2-1.8 1.3-2c.1.1 2.2 1.4 3.7 2.5v3.3l-6.6-3v.1l-.5 1 7.1 3.3v4c-.5 1.9-.8 3.9-.8 6 0 4.3 1.2 8.3 3.2 11.8 1.3 2.5 3 4.2 4.6 5.7.7.6 1.4 1.2 2.2 1.8.1 0 .1.1.2.1.1.1.2.1.3.2.1.1.2.1.3.2l.1.1c.6.4 1.2.8 1.9 1.1.9.4 2.1 1 3.5 1.6l-1.5 3.7-.7-.3c-.4-.2-.9 0-1.1.4-.2.4 0 .9.4 1.1l.7.3zm16.6 13.5c0 .7-.2 1.4-.5 2-.3.5-.8.8-1.3.8-.7 0-1.3-.4-1.5-1.1 0-.1-.1-.4-.2-.9.2.1.4.1.6.1.9 0 1.6-.7 1.6-1.5 0-.9-.7-1.5-1.6-1.5-.5 0-.9.2-1.2.5-.5-2-1-4.2-1-4.2h-.7s-.5 2.2-1 4.2c-.3-.3-.7-.5-1.1-.5-.9 0-1.5.7-1.5 1.5 0 .9.7 1.5 1.5 1.5.2 0 .4 0 .6-.1-.1.4-.2.8-.2.9-.2.6-.8 1.1-1.5 1.1-.6 0-1.1-.3-1.4-.8-.3-.6-.4-1.3-.4-2v-9.6c3.2 1 7.2 2.2 10.9 3zm.8-8.4c-5.6-1.2-12.1-3.3-15.9-4.6.4-.9 1-2.5 1.7-4.2l1 .4v.2c0 1.4 1.2 2.6 2.6 2.6 1.4 0 2.6-1.2 2.6-2.6 0-1.4-1.2-2.6-2.6-2.6-.8 0-1.4.3-1.9.9l-1.1-.5c.6-1.5 1.1-2.9 1.5-3.7 3.8 1.6 8.7 3.5 13.4 5 5 1.5 9 2.4 12 2.7-5.3 2.6-12.9 6.2-13.3 6.4m18.9-9.2c-.5.5-1.7 1-4.2 1 1.7-1.2 3.2-2.5 4.6-4 .4 1.4.3 2.4-.4 3m-7.1.8c-2.4-.3-5.7-1.1-10-2.4-.2-.1-.4-.1-.6-.2.4-2.5 1.2-4.1 2.6-4.9 2.2-1 4.2-2.4 6-4.1 1.6-1.4 3.2-3.1 4.4-5.5 2-3.5 3.2-7.6 3.2-11.9 0-2-.3-4.1-.8-6v-3.8l1.1 2.8 1.1-.4s-1.1-2.7-1.1-2.8c.2-.1 6.2-2.5 6.2-2.5l-.4-1.1h-.1l-6.7 2.7v-.5l4.5-6.4-.4-.7h-.1l-4 .9v-7.5c.4.4.8.7 1.2 1.1 6.4 6.4 10 15 10 24.1 0 5.9-1.5 11.8-4.5 16.9-2.8 5.1-6.8 9.2-11.6 12.2m5.3-42.9l-.4.6v-1.2l.4.6m-.3-2.6c.2 0 2.2-.5 2.5-.6-.2.3-1.4 2-1.5 2.1-.1-.1-.9-1.3-1-1.5"/><path d="M100.7 20.9c-1.4-2.1-3.7-3-5.4-3-2.4 0-4.9 1-7.3 2-2.7 1.1-5.5 2.2-8.3 2 .3-1 .7-2 1.2-2.8l-1.7-.8c.3-.6.6-1.3.7-2.1-.2-.1-2.5-.9-6.2-.9s-5.8.8-6 .9c.1.8.3 1.5.7 2.1l-1.7.8c.5.8.9 1.8 1.2 2.8-2.8.3-5.6-.9-8.3-2-2.4-1-4.9-2-7.3-2-1.7 0-4 .9-5.4 3-1.1 1.7-2 4.9.4 10v-.1l3.5-1.5.2.6c-1.1.5-2.2 1.8-.9 4.8 3-1.3 3.1-3 2.6-4.1l.6-.2 1.5 3.4 1.5 3.4-.6.2c-.5-1.1-1.8-2.2-4.8-.9 1.3 3 3.6 4.2 5.4 4.2 3.1 0 5.3-1.9 5-3.8-.2-1.4-1.5-1.9-2-1.8-.6.1-1 .8-.9 1.2 0 .1.1.2.1.3l-.1.1c-.8-.1-1.5-.7-1.7-1.5-.2-1 .5-2 1.5-2.2.6-.1 1.2.1 1.7.5l.2-.3c-.6-.3-1-.8-1.1-1.5-.3-1.6 1.5-3.2 1.6-3.2 0 0 2.3.8 2.6 2.4.1.7-.1 1.3-.5 1.8l.3.2c.2-.5.7-1 1.4-1.1 1-.2 2 .5 2.2 1.5.2.8-.3 1.7-1 2l-.1-.1v-.3c-.1-.5-.7-.9-1.3-.8-.5.1-1.5 1-1.2 2.4.5 2.4 2.5 4.1 4.9 4.1 2.4 0 5-2 5-5-3.5 0-4.3 1.6-4.3 3h-.7v-8h.7c0 1.3.9 3 4.3 3 0-3.5-1.6-4.3-3-4.3v-.7h7.9v.7c-1.3 0-3 .9-3 4.3 3.5 0 4.3-1.6 4.3-3h.7v8h-.5c0-1.3-.9-3-4.3-3 0 3 2.5 5 5 5 2.4 0 4.5-1.7 4.9-4.1.3-1.4-.7-2.4-1.2-2.4-.6-.1-1.2.3-1.3.8v.3l-.1.1c-.7-.4-1.2-1.2-1-2 .2-1 1.2-1.7 2.2-1.5.6.1 1.1.5 1.4 1.1l.3-.2c-.4-.5-.6-1.1-.5-1.8.3-1.6 2.6-2.4 2.6-2.4s1.9 1.6 1.6 3.2c-.1.7-.6 1.2-1.1 1.5l.2.3c.4-.4 1-.6 1.7-.5 1 .2 1.7 1.2 1.5 2.2-.2.9-.9 1.5-1.7 1.5l-.1-.1c.1-.1.1-.2.1-.3.1-.5-.3-1.1-.9-1.2-.5-.1-1.8.4-2 1.8-.3 1.9 2 3.8 5 3.8 1.8 0 4.1-1.2 5.4-4.2-3-1.3-4.3-.2-4.8.9l-.6-.2 1.5-3.4 1.5-3.4.6.2c-.5 1.1-.4 2.8 2.6 4.1 1.3-3 .2-4.3-.9-4.8l.2-.6 3.5 1.5v.1c2.1-5.2 1.2-8.3.1-10m-32.1 4.4c-1.7 0-3.1.9-3.9 2.3-.9-1.6-2.9-2.6-4.8-2.2-1.4.3-2.6 1.3-3.1 2.5-.8-1.3-2.2-2.1-3.8-2.1-2 0-3.7 1.3-4.3 3.1-1.1-2.9-1.1-5.3 0-7 1.1-1.7 3-2.2 3.8-2.2 2.1 0 4.3.9 6.6 1.8 3 1.2 6.1 2.5 9.5 2 .1.6.2 1.1.3 1.7-.1.1-.2.1-.3.1m5.3-9.3c.9 0 1.7.7 1.8 1.6-.5-.4-1.1-.7-1.8-.7s-1.3.3-1.8.7c.1-.9.9-1.6 1.8-1.6m0 1.7c.9 0 1.7.7 1.8 1.6-.5-.4-1.1-.7-1.8-.7s-1.3.3-1.8.7c.1-.9.9-1.6 1.8-1.6m0 10.1c-1 0-1.8-.8-1.8-1.8s.8-1.8 1.8-1.8 1.8.8 1.8 1.8-.8 1.8-1.8 1.8m1.7-3.9c-.5-.4-1.1-.6-1.7-.6-.7 0-1.2.2-1.7.6-.1-.2-.1-.4-.1-.6 0-1 .8-1.8 1.8-1.8s1.8.8 1.8 1.8c0 .2 0 .4-.1.6m.1-2.5c-.5-.4-1.1-.7-1.8-.7s-1.3.3-1.8.7v-.1c0-1 .8-1.8 1.8-1.8s1.8.8 1.8 1.8v.1m23.4 7.5c-.6-1.8-2.3-3.1-4.3-3.1-1.6 0-3 .8-3.8 2.1-.6-1.2-1.7-2.2-3.1-2.5-2-.4-3.9.5-4.8 2.2-.8-1.3-2.2-2.3-3.9-2.3h-.3c.1-.5.2-1.1.3-1.7 3.4.5 6.5-.8 9.5-2 2.3-.9 4.5-1.8 6.6-1.8.8 0 2.7.5 3.8 2.2 1.1 1.6 1.1 4 0 6.9M83.9 50.8l.4.8h.4l-.1.3.1-.2h.1l.1-.1.4-.8h-.7zm-7.6.7l-.1.1v.3l-.7-.1v-.5l-.5-.9.1-.1.9.5h.5v.7l-.2-.1"/><path d="M76.8 51.3c-.1 0-.2-.1-.2-.2s.1-.2.2-.2.1 0 .2.1h.1v-.2c0-.3-.2-.5-.5-.5s-.5.2-.5.5.2.5.5.5h.2m-.8.8c0-.1-.1-.2-.2-.2s-.2.1-.2.2 0 .1.1.2v.1h-.2c-.3 0-.5-.2-.5-.5s.2-.5.5-.5.5.2.5.5v.2m.3 18.5l-.1-.1v-.3l-.7.1v.4l-.5.9.1.2.9-.6h.5v-.7l-.2.1"/><path d="M76.8 70.7c-.1 0-.2.1-.2.2s.1.2.2.2.1 0 .2-.1h.1v.2c0 .3-.2.5-.5.5s-.5-.2-.5-.5.2-.5.5-.5h.2M76 70c0 .1-.1.2-.2.2s-.2-.1-.2-.2 0-.1.1-.2v-.1h-.2c-.3 0-.5.2-.5.5s.2.5.5.5.5-.2.5-.5V70m16.9.6l.1-.1v-.3l.7.1v.4l.5.9-.1.2-.9-.6h-.5v-.7l.2.1"/><path d="M92.4 70.7c.1 0 .2.1.2.2s-.1.2-.2.2-.1 0-.2-.1h-.1v.2c0 .3.2.5.5.5s.5-.2.5-.5-.2-.5-.5-.5h-.2m.8-.7c0 .1.1.2.2.2s.2-.1.2-.2 0-.1-.1-.2v-.1h.2c.3 0 .5.2.5.5s-.2.5-.5.5-.5-.2-.5-.5V70m-.3-18.5l.1.1v.3l.7-.1v-.5l.5-.9-.1-.1-.9.5h-.5v.7l.2-.1"/><path d="M92.4 51.3c.1 0 .2-.1.2-.2s-.1-.2-.2-.2-.1 0-.2.1h-.1v-.2c0-.3.2-.5.5-.5s.5.2.5.5-.2.5-.5.5h-.2m.8.8c0-.1.1-.2.2-.2s.2.1.2.2 0 .1-.1.2v.1h.2c.3 0 .5-.2.5-.5s-.2-.5-.5-.5-.5.2-.5.5zm-9.4.6h1.5v.6h-1.5zm.4.7h.8l-.3.6h-.2zm1.3-.4"/><path d="M85.7 53.3l-.1.1c-.1 0-.2-.1-.2-.2s.1-.2.2-.2h-.2c-.2 0-.4.2-.4.4s.2.4.4.4.4-.2.4-.4c-.1 0-.1 0-.1-.1zm-2-.3zm-.2.3l.1.1c.1 0 .2-.1.2-.2s-.1-.2-.2-.2h.2c.2 0 .4.2.4.4s-.2.4-.4.4-.4-.2-.4-.4c.1 0 .1 0 .1-.1zm1.8 18l-.4-.8-.3-.1h-.1l.2-.2-.2.2h-.1l-.1.1-.4.8h.7zm-1.4-2.7h1.5v.6h-1.5z"/><path d="M85 68.7h-.8l.3-.7h.2zm-1.5.1l.1-.1c.1 0 .2.1.2.2s-.1.2-.2.2h.2c.2 0 .4-.2.4-.4s-.2-.4-.4-.4-.4.2-.4.4c.1 0 .1 0 .1.1zm2.2 0l-.1-.1c-.1 0-.2.1-.2.2s.1.2.2.2h-.2c-.2 0-.4-.2-.4-.4s.2-.4.4-.4.4.2.4.4c-.1 0-.1 0-.1.1zm8-8.5l-.8.4v.4l-.2-.1.2.2h-.1l.1.1.8.4V61zm-2.6 0h.6v1.5h-.6zm0 .3v.8l-.6-.3v-.2zm.4 1.4v-.1.1"/><path d="M91.3 62.1l-.1-.1c0-.1.1-.2.2-.2s.2.1.2.2v-.2c0-.2-.2-.4-.4-.4s-.4.2-.4.4.2.4.4.4l.1-.1zm0-2.1l-.1.1c0 .1.1.2.2.2s.2-.1.2-.2v.2c0 .2-.2.4-.4.4s-.4-.2-.4-.4.2-.4.4-.4l.1.1zm-15.8.3l.8.4v.4l.2-.1-.2.2h.1l-.1.1-.8.4V61zm1.9 0h.6v1.5h-.6zm.7.3v.8l.6-.3v-.2zm-.4 1.4v-.1.1"/><path d="M78 62.1l.1-.1c0-.1-.1-.2-.2-.2s-.2.1-.2.2v-.2c0-.2.2-.4.4-.4s.4.2.4.4-.2.4-.4.4c0 0-.1 0-.1-.1zm0-2.1l.1.1c0 .1-.1.2-.2.2s-.2-.1-.2-.2v.2c0 .2.2.4.4.4s.4-.2.4-.4-.2-.4-.4-.4c0 0-.1 0-.1.1zm-29.1 85.8v25.1h30.8v-25.1h7.8v58.4h-7.8v-26.7H48.9v26.7h-7.8v-58.4zm48.2 28.6c.9-2.7 2.2-5 3.9-7 1.7-2 3.9-3.6 6.5-4.7s5.5-1.7 8.8-1.7c3.4 0 6.3.6 8.9 1.7 2.5 1.1 4.7 2.7 6.4 4.7 1.7 2 3.1 4.3 3.9 7 .9 2.7 1.3 5.6 1.3 8.7 0 3.1-.4 6-1.3 8.7-.9 2.7-2.2 5-3.9 7-1.7 2-3.9 3.5-6.4 4.7-2.5 1.1-5.5 1.7-8.9 1.7-3.3 0-6.3-.6-8.8-1.7-2.6-1.1-4.7-2.7-6.5-4.7-1.7-2-3.1-4.3-3.9-7-.9-2.7-1.3-5.6-1.3-8.7 0-3.1.4-6 1.3-8.7zm7.1 15.5c.7 2 1.6 3.7 2.8 5 1.2 1.3 2.6 2.4 4.2 3.1 1.6.7 3.3 1.1 5.1 1.1 1.8 0 3.5-.4 5.1-1.1 1.6-.7 3-1.7 4.2-3.1 1.2-1.3 2.1-3 2.8-5 .7-2 1-4.3 1-6.8 0-2.6-.3-4.8-1-6.8s-1.6-3.7-2.8-5c-1.2-1.4-2.6-2.4-4.2-3.1-1.6-.7-3.3-1.1-5.1-1.1-1.8 0-3.5.4-5.1 1.1-1.6.7-3 1.7-4.2 3.1-1.2 1.4-2.1 3-2.8 5-.7 2-1 4.3-1 6.8s.3 4.8 1 6.8zm46.4-28v6.2h.2c3.2-4.8 7.7-7.2 13.7-7.2 2.6 0 5 .5 7.1 1.6 2.1 1.1 3.6 2.9 4.5 5.6 1.4-2.3 3.3-4.1 5.6-5.3 2.3-1.3 4.9-1.9 7.6-1.9 2.1 0 4 .2 5.8.7 1.7.5 3.2 1.2 4.4 2.2 1.2 1 2.2 2.2 2.9 3.8.7 1.6 1 3.4 1 5.6v31h-7v-27.7c0-1.3-.1-2.5-.3-3.7-.2-1.1-.6-2.1-1.2-3-.6-.8-1.4-1.5-2.5-2s-2.4-.7-4.1-.7c-3.4 0-6.1 1-8.1 2.9s-2.9 4.6-2.9 7.9v26.3h-7v-27.7c0-1.4-.1-2.6-.4-3.8-.2-1.1-.7-2.1-1.3-3-.6-.8-1.4-1.5-2.4-2s-2.3-.7-3.9-.7c-2 0-3.7.4-5.2 1.2-1.4.8-2.6 1.8-3.5 2.9-.9 1.1-1.6 2.3-2 3.6-.4 1.2-.6 2.2-.6 3.1v26.3h-7v-42.2zm92.2 39.6c-3.2 2.4-7.1 3.6-11.9 3.6-3.4 0-6.3-.5-8.8-1.6-2.5-1.1-4.6-2.6-6.3-4.6-1.7-2-3-4.3-3.8-7-.8-2.7-1.3-5.7-1.4-8.9 0-3.2.5-6.2 1.5-8.8 1-2.7 2.4-5 4.1-7 1.8-2 3.9-3.5 6.3-4.6 2.4-1.1 5.1-1.6 8-1.6 3.8 0 6.9.8 9.4 2.3 2.5 1.6 4.5 3.5 6 5.9 1.5 2.4 2.5 5 3.1 7.9.6 2.8.8 5.5.7 8.1H218c-.1 1.9.2 3.6.7 5.3.5 1.7 1.3 3.1 2.4 4.4 1.1 1.3 2.5 2.3 4.2 3.1 1.7.8 3.7 1.1 6 1.1 2.9 0 5.4-.7 7.2-2 1.9-1.4 3.1-3.4 3.7-6.2h6.9c-1.1 4.6-3.2 8.2-6.3 10.6zm-1.7-27.2c-.6-1.5-1.5-2.7-2.5-3.8-1.1-1.1-2.3-1.9-3.8-2.5-1.4-.6-3-.9-4.8-.9-1.8 0-3.4.3-4.9.9-1.4.6-2.7 1.5-3.7 2.6s-1.9 2.4-2.5 3.8c-.6 1.4-1 3-1.1 4.6h24.3c0-1.6-.4-3.2-1-4.7zm36.1-10.8c1.2-3.7 2.9-6.9 5.3-9.8 2.3-2.8 5.3-5.1 8.8-6.8 3.5-1.7 7.6-2.5 12.2-2.5s8.7.8 12.2 2.5 6.4 4 8.8 6.8c2.3 2.8 4.1 6.1 5.3 9.8 1.2 3.7 1.8 7.5 1.8 11.5s-.6 7.8-1.8 11.5c-1.2 3.7-2.9 6.9-5.3 9.8-2.3 2.8-5.3 5.1-8.8 6.7-3.5 1.7-7.6 2.5-12.2 2.5s-8.7-.8-12.2-2.5-6.4-3.9-8.8-6.7c-2.3-2.8-4.1-6.1-5.3-9.8-1.2-3.7-1.8-7.5-1.8-11.5s.6-7.8 1.8-11.5zm7.1 20.2c.8 2.9 2 5.4 3.6 7.7s3.7 4.1 6.3 5.5c2.6 1.4 5.6 2.1 9.2 2.1 3.5 0 6.6-.7 9.2-2.1 2.6-1.4 4.7-3.2 6.3-5.5 1.6-2.3 2.8-4.9 3.6-7.7.8-2.9 1.1-5.8 1.1-8.7 0-2.9-.4-5.8-1.1-8.7-.8-2.9-2-5.4-3.6-7.7s-3.7-4.1-6.3-5.5c-2.6-1.4-5.6-2.1-9.2-2.1-3.5 0-6.6.7-9.2 2.1-2.6 1.4-4.7 3.2-6.3 5.5-1.6 2.3-2.8 4.9-3.6 7.7-.8 2.9-1.1 5.8-1.1 8.7 0 2.9.4 5.8 1.1 8.7zm50.2-15.7v-6.1h7.1v-6.3c0-3.4 1-6 3-7.8 2-1.8 4.9-2.7 8.7-2.7.7 0 1.4.1 2.2.2.8.1 1.6.3 2.2.5v6.1c-.6-.2-1.3-.4-2-.4-.7-.1-1.4-.1-2-.1-1.7 0-3 .3-3.9 1-.9.7-1.4 1.9-1.4 3.8v5.9h8.2v6.1h-8.2v36.2h-7v-36.2h-6.9z"/><path d="M356.2 168v-6.1h7.1v-6.3c0-3.4 1-6 3-7.8 2-1.8 4.9-2.7 8.7-2.7.7 0 1.4.1 2.2.2.8.1 1.6.3 2.2.5v6.1c-.6-.2-1.3-.4-2-.4-.7-.1-1.4-.1-2-.1-1.7 0-3 .3-3.9 1-.9.7-1.4 1.9-1.4 3.8v5.9h8.2v6.1h-8v36.2h-7v-36.2h-7.1zm27.9-13.7v-8.5h7v8.5zm7 7.6v42.3h-7v-42.3zm35 7.4c-1.7-1.5-4.1-2.2-7-2.2-2.5 0-4.6.5-6.3 1.4-1.7.9-3 2.2-4 3.7s-1.7 3.3-2.2 5.3c-.4 2-.7 4-.7 6.2 0 2 .2 3.9.7 5.7.5 1.9 1.2 3.5 2.2 4.9 1 1.4 2.3 2.6 3.8 3.5 1.6.9 3.5 1.3 5.6 1.3 3.4 0 6.1-.9 8.1-2.7 1.9-1.8 3.1-4.3 3.6-7.6h7.1c-.8 5.2-2.7 9.3-5.8 12.1-3.1 2.8-7.4 4.3-12.8 4.3-3.2 0-6.1-.5-8.5-1.6-2.5-1-4.6-2.5-6.2-4.4-1.7-1.9-2.9-4.2-3.8-6.8-.8-2.6-1.3-5.5-1.3-8.7 0-3.2.4-6.1 1.2-8.9.8-2.8 2.1-5.2 3.7-7.2 1.7-2 3.7-3.7 6.3-4.8 2.5-1.2 5.4-1.8 8.8-1.8 2.4 0 4.6.3 6.7.9 2.1.6 4 1.5 5.6 2.7 1.6 1.2 2.9 2.7 4 4.5 1 1.8 1.7 4 2 6.5h-7.2c-.7-2.8-1.8-4.9-3.6-6.3zm47.6 32.2c-3.2 2.4-7.1 3.6-11.9 3.6-3.4 0-6.3-.5-8.8-1.6-2.5-1.1-4.6-2.6-6.3-4.6-1.7-2-3-4.3-3.8-7-.8-2.7-1.3-5.7-1.4-8.9 0-3.2.5-6.2 1.5-8.8 1-2.7 2.4-5 4.1-7 1.8-2 3.9-3.5 6.3-4.6 2.4-1.1 5.1-1.6 8-1.6 3.8 0 6.9.8 9.4 2.3 2.5 1.6 4.5 3.5 6 5.9 1.5 2.4 2.5 5 3.1 7.9.6 2.8.8 5.5.7 8.1h-31.7c-.1 1.9.2 3.6.7 5.3.5 1.7 1.3 3.1 2.4 4.4 1.1 1.3 2.5 2.3 4.2 3.1 1.7.8 3.7 1.1 6 1.1 2.9 0 5.4-.7 7.2-2 1.9-1.4 3.1-3.4 3.7-6.2h6.9c-1.1 4.6-3.1 8.2-6.3 10.6zm-1.6-27.2c-.6-1.5-1.5-2.7-2.5-3.8-1.1-1.1-2.3-1.9-3.8-2.5-1.4-.6-3-.9-4.8-.9-1.8 0-3.4.3-4.9.9-1.4.6-2.7 1.5-3.7 2.6s-1.9 2.4-2.5 3.8c-.6 1.4-1 3-1.1 4.6h24.3c0-1.6-.4-3.2-1-4.7z"/></svg>